<mxfile host="app.diagrams.net" modified="2024-06-14T12:53:48.259Z" agent="Mozilla/5.0 (Windows NT 10.0; Win64; x64) AppleWebKit/537.36 (KHTML, like Gecko) Chrome/125.0.0.0 Safari/537.36 Edg/125.0.0.0" etag="YbE8KoMeKvANsfAXYmAw" version="24.3.1" type="device">
  <diagram name="第 1 页" id="8eEYxZTukUPHSvITXHtt">
    <mxGraphModel dx="884" dy="398" grid="1" gridSize="10" guides="1" tooltips="1" connect="1" arrows="1" fold="1" page="1" pageScale="1" pageWidth="827" pageHeight="1169" math="0" shadow="0">
      <root>
        <mxCell id="0" />
        <mxCell id="1" parent="0" />
        <mxCell id="W_jhgsFdFp-Sem07Y6T6-1" value="" style="shape=actor;whiteSpace=wrap;html=1;" vertex="1" parent="1">
          <mxGeometry x="80" y="168" width="40" height="60" as="geometry" />
        </mxCell>
        <mxCell id="W_jhgsFdFp-Sem07Y6T6-2" value="Client" style="text;html=1;align=center;verticalAlign=middle;resizable=0;points=[];autosize=1;strokeColor=none;fillColor=none;" vertex="1" parent="1">
          <mxGeometry x="75" y="240" width="50" height="30" as="geometry" />
        </mxCell>
        <mxCell id="W_jhgsFdFp-Sem07Y6T6-9" style="edgeStyle=orthogonalEdgeStyle;rounded=0;orthogonalLoop=1;jettySize=auto;html=1;" edge="1" parent="1" source="W_jhgsFdFp-Sem07Y6T6-3">
          <mxGeometry relative="1" as="geometry">
            <mxPoint x="360" y="208" as="targetPoint" />
          </mxGeometry>
        </mxCell>
        <mxCell id="W_jhgsFdFp-Sem07Y6T6-10" style="edgeStyle=orthogonalEdgeStyle;rounded=0;orthogonalLoop=1;jettySize=auto;html=1;entryX=0.448;entryY=-0.036;entryDx=0;entryDy=0;entryPerimeter=0;" edge="1" parent="1" source="W_jhgsFdFp-Sem07Y6T6-3" target="W_jhgsFdFp-Sem07Y6T6-4">
          <mxGeometry relative="1" as="geometry">
            <mxPoint x="239.75" y="60" as="targetPoint" />
            <mxPoint x="239.75" y="148" as="sourcePoint" />
            <Array as="points">
              <mxPoint x="240" y="120" />
              <mxPoint x="410" y="120" />
            </Array>
          </mxGeometry>
        </mxCell>
        <mxCell id="W_jhgsFdFp-Sem07Y6T6-3" value="" style="shape=cube;whiteSpace=wrap;html=1;boundedLbl=1;backgroundOutline=1;darkOpacity=0.05;darkOpacity2=0.1;" vertex="1" parent="1">
          <mxGeometry x="200" y="168" width="80" height="80" as="geometry" />
        </mxCell>
        <mxCell id="W_jhgsFdFp-Sem07Y6T6-4" value="" style="shape=cube;whiteSpace=wrap;html=1;boundedLbl=1;backgroundOutline=1;darkOpacity=0.05;darkOpacity2=0.1;" vertex="1" parent="1">
          <mxGeometry x="370" y="160" width="90" height="40" as="geometry" />
        </mxCell>
        <mxCell id="W_jhgsFdFp-Sem07Y6T6-5" value="" style="shape=cylinder3;whiteSpace=wrap;html=1;boundedLbl=1;backgroundOutline=1;size=15;" vertex="1" parent="1">
          <mxGeometry x="510" y="160" width="60" height="80" as="geometry" />
        </mxCell>
        <mxCell id="W_jhgsFdFp-Sem07Y6T6-6" value="" style="shape=cube;whiteSpace=wrap;html=1;boundedLbl=1;backgroundOutline=1;darkOpacity=0.05;darkOpacity2=0.1;" vertex="1" parent="1">
          <mxGeometry x="370" y="200" width="90" height="40" as="geometry" />
        </mxCell>
        <mxCell id="W_jhgsFdFp-Sem07Y6T6-7" value="" style="shape=cube;whiteSpace=wrap;html=1;boundedLbl=1;backgroundOutline=1;darkOpacity=0.05;darkOpacity2=0.1;" vertex="1" parent="1">
          <mxGeometry x="370" y="240" width="90" height="40" as="geometry" />
        </mxCell>
        <mxCell id="W_jhgsFdFp-Sem07Y6T6-8" style="edgeStyle=orthogonalEdgeStyle;rounded=0;orthogonalLoop=1;jettySize=auto;html=1;entryX=0;entryY=0;entryDx=0;entryDy=30;entryPerimeter=0;" edge="1" parent="1" source="W_jhgsFdFp-Sem07Y6T6-1" target="W_jhgsFdFp-Sem07Y6T6-3">
          <mxGeometry relative="1" as="geometry" />
        </mxCell>
        <mxCell id="W_jhgsFdFp-Sem07Y6T6-13" value="Mysql" style="text;html=1;align=center;verticalAlign=middle;resizable=0;points=[];autosize=1;strokeColor=none;fillColor=none;" vertex="1" parent="1">
          <mxGeometry x="560" y="240" width="50" height="30" as="geometry" />
        </mxCell>
        <mxCell id="W_jhgsFdFp-Sem07Y6T6-14" value="redis" style="text;html=1;align=center;verticalAlign=middle;resizable=0;points=[];autosize=1;strokeColor=none;fillColor=none;" vertex="1" parent="1">
          <mxGeometry x="390" y="280" width="50" height="30" as="geometry" />
        </mxCell>
        <mxCell id="W_jhgsFdFp-Sem07Y6T6-15" style="edgeStyle=orthogonalEdgeStyle;rounded=0;orthogonalLoop=1;jettySize=auto;html=1;entryX=0.5;entryY=1;entryDx=0;entryDy=0;entryPerimeter=0;" edge="1" parent="1" source="W_jhgsFdFp-Sem07Y6T6-3" target="W_jhgsFdFp-Sem07Y6T6-5">
          <mxGeometry relative="1" as="geometry">
            <Array as="points">
              <mxPoint x="240" y="320" />
              <mxPoint x="540" y="320" />
            </Array>
          </mxGeometry>
        </mxCell>
        <mxCell id="W_jhgsFdFp-Sem07Y6T6-16" value="1.Look in cache，cache hit return data" style="text;html=1;align=center;verticalAlign=middle;resizable=0;points=[];autosize=1;strokeColor=none;fillColor=none;" vertex="1" parent="1">
          <mxGeometry x="220" y="70" width="230" height="30" as="geometry" />
        </mxCell>
        <mxCell id="W_jhgsFdFp-Sem07Y6T6-18" value="2.Cache miss look in persistent datatore" style="text;html=1;align=center;verticalAlign=middle;resizable=0;points=[];autosize=1;strokeColor=none;fillColor=none;" vertex="1" parent="1">
          <mxGeometry x="230" y="330" width="240" height="30" as="geometry" />
        </mxCell>
        <mxCell id="W_jhgsFdFp-Sem07Y6T6-19" value="3.prime cache with data" style="text;html=1;align=center;verticalAlign=middle;resizable=0;points=[];autosize=1;strokeColor=none;fillColor=none;" vertex="1" parent="1">
          <mxGeometry x="250" y="138" width="150" height="30" as="geometry" />
        </mxCell>
      </root>
    </mxGraphModel>
  </diagram>
</mxfile>
